{
 "cells": [
  {
   "cell_type": "markdown",
   "id": "d4f2e98a-d8a7-45dc-a275-f15f1f743d5b",
   "metadata": {},
   "source": [
    "## Video resources, configuration\n",
    "\n",
    "Define a **VIDEO_RESOURCES** environment variable pointing to the location of your original videos, and **VIDEO_COMPRESSED** environment variable pointing to the location to use for storing the resulting compressed videos."
   ]
  },
  {
   "cell_type": "code",
   "execution_count": 6,
   "id": "041c7d89-af2d-462b-bc46-ab92748bd7b1",
   "metadata": {},
   "outputs": [],
   "source": [
    "from dotenv import dotenv_values\n",
    "import os\n",
    "\n",
    "config = dict()\n",
    "config[\"VIDEO_RESOURCES\"] = os.getenv(\"VIDEO_RESOURCES\", None)\n",
    "config[\"VIDEO_COMPRESSED\"] = os.getenv(\"VIDEO_COMPRESSED\", None)\n",
    "\n",
    "if not any(config.values()):\n",
    "    config = dotenv_values(os.path.join(os.path.dirname(os.getcwd()), \".env\"))"
   ]
  },
  {
   "cell_type": "code",
   "execution_count": 12,
   "id": "4ed377e3-9567-437c-9910-7bb45c55dd96",
   "metadata": {},
   "outputs": [],
   "source": [
    "# input sources\n",
    "config[\"VIDEO_IN\"] = [os.path.join(config[\"VIDEO_RESOURCES\"], x) \\\n",
    "                      for x in os.listdir(config[\"VIDEO_RESOURCES\"]) if \\\n",
    "                      x.endswith(\".mp4\") or x.endswith(\".mkv\")]"
   ]
  },
  {
   "cell_type": "code",
   "execution_count": 13,
   "id": "cf7f84b7-90ea-4a00-92a3-2b9ee65def4e",
   "metadata": {},
   "outputs": [],
   "source": [
    "# destination\n",
    "config[\"VIDEO_OUT\"] = [x.replace(\"/original/\", \"/compressed/\") for x in config[\"VIDEO_IN\"]]"
   ]
  },
  {
   "cell_type": "code",
   "execution_count": 14,
   "id": "09018458-2b7e-4943-a8a5-1362b143a6e6",
   "metadata": {},
   "outputs": [],
   "source": [
    "import ffmpeg\n",
    "\n",
    "from ipywidgets import interact\n",
    "from matplotlib import pyplot as plt\n",
    "import ipywidgets as widgets\n",
    "import numpy as np"
   ]
  },
  {
   "cell_type": "code",
   "execution_count": 70,
   "id": "bbee10c1-8ff5-418b-bb50-65df1b9d22cf",
   "metadata": {},
   "outputs": [],
   "source": [
    "probe = ffmpeg.probe(config[\"VIDEO_IN\"][0])\n",
    "video_info = next(stream for stream in probe[\"streams\"] if stream[\"codec_type\"] == \"video\")\n",
    "# display the metadata within the sequence\n",
    "#print(video_info)"
   ]
  },
  {
   "cell_type": "code",
   "execution_count": 71,
   "id": "a0048a28-94a0-46b0-8555-ff1dcdbd7080",
   "metadata": {},
   "outputs": [],
   "source": [
    "width = int(video_info[\"width\"])\n",
    "height = int(video_info[\"height\"])\n",
    "\n",
    "num_frames = 0\n",
    "\n",
    "if \"nb_frames\" in video_info:\n",
    "    num_frames = int(video_info[\"nb_frames\"])\n",
    "else:\n",
    "    hours, mins, secs = video_info[\"tags\"][\"DURATION\"].split(\":\")\n",
    "    secs,frames = secs.split(\",\")\n",
    "    hours, mins, secs, frames = map(lambda x: int(x) if len(x) < 3 else \\\n",
    "                                    round(int(x)*1e-7), [hours, mins, secs, frames])\n",
    "    frame_rate = int(video_info[\"r_frame_rate\"].split(\"/\")[0])\n",
    "    num_frames = frame_rate * (3600 * hours + 60 * mins + secs) + frames\n",
    "    \n",
    "#print(\"total number of frames in sequence = {}\".format(num_frames))"
   ]
  },
  {
   "cell_type": "code",
   "execution_count": 72,
   "id": "323ba5c0-4ab3-4d6c-bc9f-fa225aa5dbe7",
   "metadata": {},
   "outputs": [
    {
     "name": "stderr",
     "output_type": "stream",
     "text": [
      "ffmpeg version n4.4.1-2-gcc33e73618 Copyright (c) 2000-2021 the FFmpeg developers\n",
      "  built with gcc 10 (Ubuntu 10.3.0-1ubuntu1~20.04)\n",
      "  configuration: --prefix=/opt/local --enable-gpl --enable-version3 --enable-nonfree --enable-shared --enable-opencl --enable-opengl --enable-vulkan --enable-libxvid --enable-libx265 --enable-libx264 --enable-libwebp --enable-libvpx --enable-libvorbis --enable-libtheora --enable-libsrt --enable-libspeex --enable-libsoxr --enable-librtmp --enable-librsvg --enable-libopus --enable-libopenmpt --enable-libcaca --cpu=znver2 --enable-pic --enable-lto --enable-avx2 --enable-libkvazaar --enable-libvmaf --enable-libdav1d --enable-libaom --x86asmexe=yasm\n",
      "  libavutil      56. 70.100 / 56. 70.100\n",
      "  libavcodec     58.134.100 / 58.134.100\n",
      "  libavformat    58. 76.100 / 58. 76.100\n",
      "  libavdevice    58. 13.100 / 58. 13.100\n",
      "  libavfilter     7.110.100 /  7.110.100\n",
      "  libswscale      5.  9.100 /  5.  9.100\n",
      "  libswresample   3.  9.100 /  3.  9.100\n",
      "  libpostproc    55.  9.100 / 55.  9.100\n",
      "Input #0, matroska,webm, from '/home/cgwork/Downloads/Masters/Tecnologias_Comunicacao_Multimedia_TCM/Work/videos/original/light_orbitals.mkv':\n",
      "  Metadata:\n",
      "    ENCODER         : Lavf58.76.100\n",
      "  Duration: 00:00:10.24, start: 0.000000, bitrate: 59412 kb/s\n",
      "  Stream #0:0: Video: hevc (Rext), yuv444p(pc, bt709), 1280x720 [SAR 1:1 DAR 16:9], 25 fps, 25 tbr, 1k tbn, 25 tbc (default)\n",
      "    Metadata:\n",
      "      DURATION        : 00:00:10,240000000\n",
      "Stream mapping:\n",
      "  Stream #0:0 -> #0:0 (hevc (native) -> rawvideo (native))\n",
      "Press [q] to stop, [?] for help\n",
      "Output #0, rawvideo, to 'pipe:':\n",
      "  Metadata:\n",
      "    encoder         : Lavf58.76.100\n",
      "  Stream #0:0: Video: rawvideo (RGB[24] / 0x18424752), rgb24(pc, gbr/bt709/bt709, progressive), 1280x720 [SAR 1:1 DAR 16:9], q=2-31, 552960 kb/s, 25 fps, 25 tbn (default)\n",
      "    Metadata:\n",
      "      DURATION        : 00:00:10,240000000\n",
      "      encoder         : Lavc58.134.100 rawvideo\n",
      "frame=  257 fps=173 q=-0.0 Lsize=  693900kB time=00:00:10.28 bitrate=552960.0kbits/s speed=6.91x    \n",
      "video:693900kB audio:0kB subtitle:0kB other streams:0kB global headers:0kB muxing overhead: 0.000000%\n"
     ]
    }
   ],
   "source": [
    "out, err = (\n",
    "    ffmpeg\n",
    "    .input(config[\"VIDEO_IN\"][0])\n",
    "    .output(\"pipe:\", format=\"rawvideo\", pix_fmt=\"rgb24\")\n",
    "    .run(capture_stdout = True)\n",
    ")\n",
    "video = (\n",
    "    np\n",
    "    .frombuffer(out, np.uint8)\n",
    "    .reshape([-1, height, width, 3])\n",
    ")"
   ]
  },
  {
   "cell_type": "code",
   "execution_count": 74,
   "id": "11d19108-6146-4db2-b52b-341d84cebff5",
   "metadata": {},
   "outputs": [
    {
     "data": {
      "application/vnd.jupyter.widget-view+json": {
       "model_id": "11d78b5039644b64b36619979507df49",
       "version_major": 2,
       "version_minor": 0
      },
      "text/plain": [
       "interactive(children=(IntSlider(value=0, description='frame', max=274), Output()), _dom_classes=('widget-inter…"
      ]
     },
     "metadata": {},
     "output_type": "display_data"
    }
   ],
   "source": [
    "@interact(frame=(0, num_frames))\n",
    "def show_frame(frame = 0):\n",
    "    plt.imshow(video[frame,:,:,:])"
   ]
  },
  {
   "cell_type": "code",
   "execution_count": 75,
   "id": "5b768209-bb23-4224-8335-eb7927ffa4fe",
   "metadata": {},
   "outputs": [],
   "source": [
    "#print(video_info)"
   ]
  },
  {
   "cell_type": "markdown",
   "id": "4befcf89-53c0-4aba-8f03-8d0da74b7605",
   "metadata": {},
   "source": [
    "Check codecs with ```ffmpeg -codecs``` and specific options with ```ffmpeg -h encoder=<encoder here>```, example for the h264 case, ```ffmpeg -h encoder=libx264```.\n",
    "In our case, we're interested in h264, h264/HEVC, h266/VVC, VP8, VP9, AV1."
   ]
  },
  {
   "cell_type": "code",
   "execution_count": 76,
   "id": "cd95699c-8ac9-4bc2-bac4-a3007c1a3cee",
   "metadata": {},
   "outputs": [
    {
     "name": "stdout",
     "output_type": "stream",
     "text": [
      "ffmpeg version n4.4.1-2-gcc33e73618 Copyright (c) 2000-2021 the FFmpeg developers\n",
      "  built with gcc 10 (Ubuntu 10.3.0-1ubuntu1~20.04)\n",
      "  configuration: --prefix=/opt/local --enable-gpl --enable-version3 --enable-nonfree --enable-shared --enable-opencl --enable-opengl --enable-vulkan --enable-libxvid --enable-libx265 --enable-libx264 --enable-libwebp --enable-libvpx --enable-libvorbis --enable-libtheora --enable-libsrt --enable-libspeex --enable-libsoxr --enable-librtmp --enable-librsvg --enable-libopus --enable-libopenmpt --enable-libcaca --cpu=znver2 --enable-pic --enable-lto --enable-avx2 --enable-libkvazaar --enable-libvmaf --enable-libdav1d --enable-libaom --x86asmexe=yasm\n",
      "  libavutil      56. 70.100 / 56. 70.100\n",
      "  libavcodec     58.134.100 / 58.134.100\n",
      "  libavformat    58. 76.100 / 58. 76.100\n",
      "  libavdevice    58. 13.100 / 58. 13.100\n",
      "  libavfilter     7.110.100 /  7.110.100\n",
      "  libswscale      5.  9.100 /  5.  9.100\n",
      "  libswresample   3.  9.100 /  3.  9.100\n",
      "  libpostproc    55.  9.100 / 55.  9.100\n",
      " DEV.L. av1                  Alliance for Open Media AV1 (decoders: libdav1d libaom-av1 av1 ) (encoders: libaom-av1 )\n",
      " DEV.LS h264                 H.264 / AVC / MPEG-4 AVC / MPEG-4 part 10 (decoders: h264 h264_v4l2m2m h264_cuvid ) (encoders: libx264 libx264rgb h264_nvenc h264_v4l2m2m nvenc nvenc_h264 )\n",
      " DEV.L. hevc                 H.265 / HEVC (High Efficiency Video Coding) (decoders: hevc hevc_v4l2m2m hevc_cuvid ) (encoders: libx265 nvenc_hevc hevc_nvenc hevc_v4l2m2m libkvazaar )\n",
      " DEV.L. vp8                  On2 VP8 (decoders: vp8 vp8_v4l2m2m libvpx vp8_cuvid ) (encoders: libvpx vp8_v4l2m2m )\n",
      " DEV.L. vp9                  Google VP9 (decoders: vp9 vp9_v4l2m2m libvpx-vp9 vp9_cuvid ) (encoders: libvpx-vp9 )\n",
      " ..V.L. vvc                  H.266 / VVC (Versatile Video Coding)\n"
     ]
    }
   ],
   "source": [
    "!ffmpeg -codecs|grep -wE 'av1|vp8|vp9|h264|hevc|vvc'"
   ]
  },
  {
   "cell_type": "markdown",
   "id": "ef6f7ed0-1d44-4024-bc67-d3e910f89345",
   "metadata": {},
   "source": [
    "## Codec options\n",
    "\n",
    "### H.264 | MPEG-4 AVC\n",
    "\n",
    "We need to check the options for each family of codecs, though to keep it manageable, we'll be restricted to changing the macroblock size, and the number of intraframes, as well as perhaps the pixel format for specific luma and chroma subsampling. We might change the DCT, IDCT type, from fast integer to floating point, and do some analysis first of common metrics, then of new perceptual metrics, then using deep learning and reference free image quality metrics."
   ]
  },
  {
   "cell_type": "code",
   "execution_count": 77,
   "id": "d8fea676-8d4d-499b-bfcf-57fdf05863b0",
   "metadata": {},
   "outputs": [
    {
     "name": "stdout",
     "output_type": "stream",
     "text": [
      "ffmpeg version n4.4.1-2-gcc33e73618 Copyright (c) 2000-2021 the FFmpeg developers\n",
      "  built with gcc 10 (Ubuntu 10.3.0-1ubuntu1~20.04)\n",
      "  configuration: --prefix=/opt/local --enable-gpl --enable-version3 --enable-nonfree --enable-shared --enable-opencl --enable-opengl --enable-vulkan --enable-libxvid --enable-libx265 --enable-libx264 --enable-libwebp --enable-libvpx --enable-libvorbis --enable-libtheora --enable-libsrt --enable-libspeex --enable-libsoxr --enable-librtmp --enable-librsvg --enable-libopus --enable-libopenmpt --enable-libcaca --cpu=znver2 --enable-pic --enable-lto --enable-avx2 --enable-libkvazaar --enable-libvmaf --enable-libdav1d --enable-libaom --x86asmexe=yasm\n",
      "  libavutil      56. 70.100 / 56. 70.100\n",
      "  libavcodec     58.134.100 / 58.134.100\n",
      "  libavformat    58. 76.100 / 58. 76.100\n",
      "  libavdevice    58. 13.100 / 58. 13.100\n",
      "  libavfilter     7.110.100 /  7.110.100\n",
      "  libswscale      5.  9.100 /  5.  9.100\n",
      "  libswresample   3.  9.100 /  3.  9.100\n",
      "  libpostproc    55.  9.100 / 55.  9.100\n",
      "Encoder libx264 [libx264 H.264 / AVC / MPEG-4 AVC / MPEG-4 part 10]:\n",
      "    General capabilities: delay threads \n",
      "    Threading capabilities: other\n",
      "    Supported pixel formats: yuv420p yuvj420p yuv422p yuvj422p yuv444p yuvj444p nv12 nv16 nv21 yuv420p10le yuv422p10le yuv444p10le nv20le\n",
      "libx264 AVOptions:\n",
      "  -preset            <string>     E..V....... Set the encoding preset (cf. x264 --fullhelp) (default \"medium\")\n",
      "  -tune              <string>     E..V....... Tune the encoding params (cf. x264 --fullhelp)\n",
      "  -profile           <string>     E..V....... Set profile restrictions (cf. x264 --fullhelp) \n",
      "  -fastfirstpass     <boolean>    E..V....... Use fast settings when encoding first pass (default true)\n",
      "  -level             <string>     E..V....... Specify level (as defined by Annex A)\n",
      "  -passlogfile       <string>     E..V....... Filename for 2 pass stats\n",
      "  -wpredp            <string>     E..V....... Weighted prediction for P-frames\n",
      "  -a53cc             <boolean>    E..V....... Use A53 Closed Captions (if available) (default true)\n",
      "  -x264opts          <string>     E..V....... x264 options\n",
      "  -crf               <float>      E..V....... Select the quality for constant quality mode (from -1 to FLT_MAX) (default -1)\n",
      "  -crf_max           <float>      E..V....... In CRF mode, prevents VBV from lowering quality beyond this point. (from -1 to FLT_MAX) (default -1)\n",
      "  -qp                <int>        E..V....... Constant quantization parameter rate control method (from -1 to INT_MAX) (default -1)\n",
      "  -aq-mode           <int>        E..V....... AQ method (from -1 to INT_MAX) (default -1)\n",
      "     none            0            E..V.......\n",
      "     variance        1            E..V....... Variance AQ (complexity mask)\n",
      "     autovariance    2            E..V....... Auto-variance AQ\n",
      "     autovariance-biased 3            E..V....... Auto-variance AQ with bias to dark scenes\n",
      "  -aq-strength       <float>      E..V....... AQ strength. Reduces blocking and blurring in flat and textured areas. (from -1 to FLT_MAX) (default -1)\n",
      "  -psy               <boolean>    E..V....... Use psychovisual optimizations. (default auto)\n",
      "  -psy-rd            <string>     E..V....... Strength of psychovisual optimization, in <psy-rd>:<psy-trellis> format.\n",
      "  -rc-lookahead      <int>        E..V....... Number of frames to look ahead for frametype and ratecontrol (from -1 to INT_MAX) (default -1)\n",
      "  -weightb           <boolean>    E..V....... Weighted prediction for B-frames. (default auto)\n",
      "  -weightp           <int>        E..V....... Weighted prediction analysis method. (from -1 to INT_MAX) (default -1)\n",
      "     none            0            E..V.......\n",
      "     simple          1            E..V.......\n",
      "     smart           2            E..V.......\n",
      "  -ssim              <boolean>    E..V....... Calculate and print SSIM stats. (default auto)\n",
      "  -intra-refresh     <boolean>    E..V....... Use Periodic Intra Refresh instead of IDR frames. (default auto)\n",
      "  -bluray-compat     <boolean>    E..V....... Bluray compatibility workarounds. (default auto)\n",
      "  -b-bias            <int>        E..V....... Influences how often B-frames are used (from INT_MIN to INT_MAX) (default INT_MIN)\n",
      "  -b-pyramid         <int>        E..V....... Keep some B-frames as references. (from -1 to INT_MAX) (default -1)\n",
      "     none            0            E..V.......\n",
      "     strict          1            E..V....... Strictly hierarchical pyramid\n",
      "     normal          2            E..V....... Non-strict (not Blu-ray compatible)\n",
      "  -mixed-refs        <boolean>    E..V....... One reference per partition, as opposed to one reference per macroblock (default auto)\n",
      "  -8x8dct            <boolean>    E..V....... High profile 8x8 transform. (default auto)\n",
      "  -fast-pskip        <boolean>    E..V....... (default auto)\n",
      "  -aud               <boolean>    E..V....... Use access unit delimiters. (default auto)\n",
      "  -mbtree            <boolean>    E..V....... Use macroblock tree ratecontrol. (default auto)\n",
      "  -deblock           <string>     E..V....... Loop filter parameters, in <alpha:beta> form.\n",
      "  -cplxblur          <float>      E..V....... Reduce fluctuations in QP (before curve compression) (from -1 to FLT_MAX) (default -1)\n",
      "  -partitions        <string>     E..V....... A comma-separated list of partitions to consider. Possible values: p8x8, p4x4, b8x8, i8x8, i4x4, none, all\n",
      "  -direct-pred       <int>        E..V....... Direct MV prediction mode (from -1 to INT_MAX) (default -1)\n",
      "     none            0            E..V.......\n",
      "     spatial         1            E..V.......\n",
      "     temporal        2            E..V.......\n",
      "     auto            3            E..V.......\n",
      "  -slice-max-size    <int>        E..V....... Limit the size of each slice in bytes (from -1 to INT_MAX) (default -1)\n",
      "  -stats             <string>     E..V....... Filename for 2 pass stats\n",
      "  -nal-hrd           <int>        E..V....... Signal HRD information (requires vbv-bufsize; cbr not allowed in .mp4) (from -1 to INT_MAX) (default -1)\n",
      "     none            0            E..V.......\n",
      "     vbr             1            E..V.......\n",
      "     cbr             2            E..V.......\n",
      "  -avcintra-class    <int>        E..V....... AVC-Intra class 50/100/200 (from -1 to 200) (default -1)\n",
      "  -me_method         <int>        E..V....... Set motion estimation method (from -1 to 4) (default -1)\n",
      "     dia             0            E..V.......\n",
      "     hex             1            E..V.......\n",
      "     umh             2            E..V.......\n",
      "     esa             3            E..V.......\n",
      "     tesa            4            E..V.......\n",
      "  -motion-est        <int>        E..V....... Set motion estimation method (from -1 to 4) (default -1)\n",
      "     dia             0            E..V.......\n",
      "     hex             1            E..V.......\n",
      "     umh             2            E..V.......\n",
      "     esa             3            E..V.......\n",
      "     tesa            4            E..V.......\n",
      "  -forced-idr        <boolean>    E..V....... If forcing keyframes, force them as IDR frames. (default false)\n",
      "  -coder             <int>        E..V....... Coder type (from -1 to 1) (default default)\n",
      "     default         -1           E..V.......\n",
      "     cavlc           0            E..V.......\n",
      "     cabac           1            E..V.......\n",
      "     vlc             0            E..V.......\n",
      "     ac              1            E..V.......\n",
      "  -b_strategy        <int>        E..V....... Strategy to choose between I/P/B-frames (from -1 to 2) (default -1)\n",
      "  -chromaoffset      <int>        E..V....... QP difference between chroma and luma (from INT_MIN to INT_MAX) (default 0)\n",
      "  -sc_threshold      <int>        E..V....... Scene change threshold (from INT_MIN to INT_MAX) (default -1)\n",
      "  -noise_reduction   <int>        E..V....... Noise reduction (from INT_MIN to INT_MAX) (default -1)\n",
      "  -x264-params       <dictionary> E..V....... Override the x264 configuration using a :-separated list of key=value parameters\n",
      "\n"
     ]
    }
   ],
   "source": [
    "!ffmpeg -h encoder=libx264"
   ]
  },
  {
   "cell_type": "markdown",
   "id": "53c33d41-959c-4f4d-98b8-368249efa9e2",
   "metadata": {},
   "source": [
    "#### Encoding Entropy Algorithm *(coder)* can be one of:\n",
    " * [CABAC](https://en.wikipedia.org/wiki/Context-adaptive_binary_arithmetic_coding) - Context Adaptive Binary Arithmetic Coding\n",
    " * [CAVLC](https://en.wikipedia.org/wiki/Context-adaptive_variable-length_coding) - Context Adaptive Variable Length Encoding\n",
    " * [AC](https://en.wikipedia.org/wiki/Arithmetic_coding) - Arithmetic Coding\n",
    " * [VLC](https://en.wikipedia.org/wiki/Variable-length_code) - Variable Lenght Encoding\n",
    "\n",
    "See [also this](https://learn.akamai.com/en-us/webhelp/media-services-on-demand/media-services-on-demand-encoder-best-practices/GUID-F3F0BD92-69C3-4B7F-BE84-A33BA138B55A.html)\n",
    "\n",
    "Rate control, can be one of:\n",
    " * ConstQP - Constant Quantization P mode\n",
    " * [VBR](https://en.wikipedia.org/wiki/Variable_bitrate) - Variable Bit Rate\n",
    " * [CBR](https://en.wikipedia.org/wiki/Constant_bitrate) - Constant Bit Rate\n",
    " * CBR_LD_HQ - Constant Bit Rate with Low Delay, High Quality mode\n",
    " * CBR_HQ - Constant Bit Rate High Quality Mode\n",
    " * VBR_HQ - Variable Bit Rate High Quality Mode\n",
    "\n",
    "[Chroma subsampling](https://en.wikipedia.org/wiki/Chroma_subsampling) can be YUV 4:2:0, 4:2:2, 4:4:4.\n",
    "The libx264 codec has more control over the macroblocks when compared with NVenc. Other codecs support other sampling modes, such as YUV 4:1:1, and quantization modes for 10bit, 12bit, 16bit signals, besides RGB."
   ]
  },
  {
   "cell_type": "markdown",
   "id": "b03cb7a9-0fc3-4e9d-a3a5-b291a1d717fd",
   "metadata": {},
   "source": [
    "### h265 | HEVC options"
   ]
  },
  {
   "cell_type": "code",
   "execution_count": 66,
   "id": "8140b1e7-a6fe-4215-96d7-6dbbf090396e",
   "metadata": {},
   "outputs": [
    {
     "name": "stdout",
     "output_type": "stream",
     "text": [
      "ffmpeg version n4.4.1-2-gcc33e73618 Copyright (c) 2000-2021 the FFmpeg developers\n",
      "  built with gcc 10 (Ubuntu 10.3.0-1ubuntu1~20.04)\n",
      "  configuration: --prefix=/opt/local --enable-gpl --enable-version3 --enable-nonfree --enable-shared --enable-opencl --enable-opengl --enable-vulkan --enable-libxvid --enable-libx265 --enable-libx264 --enable-libwebp --enable-libvpx --enable-libvorbis --enable-libtheora --enable-libsrt --enable-libspeex --enable-libsoxr --enable-librtmp --enable-librsvg --enable-libopus --enable-libopenmpt --enable-libcaca --cpu=znver2 --enable-pic --enable-lto --enable-avx2 --enable-libkvazaar --enable-libvmaf --enable-libdav1d --enable-libaom --x86asmexe=yasm\n",
      "  libavutil      56. 70.100 / 56. 70.100\n",
      "  libavcodec     58.134.100 / 58.134.100\n",
      "  libavformat    58. 76.100 / 58. 76.100\n",
      "  libavdevice    58. 13.100 / 58. 13.100\n",
      "  libavfilter     7.110.100 /  7.110.100\n",
      "  libswscale      5.  9.100 /  5.  9.100\n",
      "  libswresample   3.  9.100 /  3.  9.100\n",
      "  libpostproc    55.  9.100 / 55.  9.100\n",
      "Encoder libx265 [libx265 H.265 / HEVC]:\n",
      "    General capabilities: delay threads \n",
      "    Threading capabilities: other\n",
      "    Supported pixel formats: yuv420p yuvj420p yuv422p yuvj422p yuv444p yuvj444p gbrp yuv420p10le yuv422p10le yuv444p10le gbrp10le yuv420p12le yuv422p12le yuv444p12le gbrp12le gray gray10le gray12le\n",
      "libx265 AVOptions:\n",
      "  -crf               <float>      E..V....... set the x265 crf (from -1 to FLT_MAX) (default -1)\n",
      "  -qp                <int>        E..V....... set the x265 qp (from -1 to INT_MAX) (default -1)\n",
      "  -forced-idr        <boolean>    E..V....... if forcing keyframes, force them as IDR frames (default false)\n",
      "  -preset            <string>     E..V....... set the x265 preset\n",
      "  -tune              <string>     E..V....... set the x265 tune parameter\n",
      "  -profile           <string>     E..V....... set the x265 profile\n",
      "  -x265-params       <dictionary> E..V....... set the x265 configuration using a :-separated list of key=value parameters\n",
      "\n"
     ]
    }
   ],
   "source": [
    "# hevc, libx265, kvazaar, hevc_nvenc\n",
    "!ffmpeg -h encoder=libx265"
   ]
  },
  {
   "cell_type": "markdown",
   "id": "28406b21-ad0b-44ab-b312-9e82cbfae4d3",
   "metadata": {},
   "source": [
    "The same criteria as with h264 apply.\n",
    "\n",
    "### H.266 | VVC\n",
    "\n",
    "It's known to FFMPEG, but without a supported encoder, yet, though patches exists in development branches.\n",
    "Test with the official Fraunhoffer provided VVenc.\n",
    "It seems to expect a YUV input video, already chroma subsampled in 4:2:0, 8, or 10bits"
   ]
  },
  {
   "cell_type": "code",
   "execution_count": 68,
   "id": "2dadbec0-ec17-4b00-be47-499379699839",
   "metadata": {},
   "outputs": [
    {
     "name": "stdout",
     "output_type": "stream",
     "text": [
      "vvencapp: Fraunhofer VVC Encoder ver. 1.3.0 [Linux][GCC 10.3.0][64 bit][SIMD=AVX2]\n",
      "\n",
      "#======== General Options ================\n",
      "        --help [0]              show default help\n",
      "        --fullhelp [0]          show full help\n",
      "  -v,   --verbosity [verbose]   Specifies the level of the verboseness (0: silent, 1: error, 2: warning, 3: info, 4:\n",
      "                                notice, 5: verbose, 6: debug)\n",
      "        --version [0]           show version \n",
      "\n",
      "#======== Input Options ================\n",
      "  -i,   --input []              original YUV input file name or '-' for reading from stdin\n",
      "  -s,   --size [1920x1080]      specify input resolution (WidthxHeight)\n",
      "  -c,   --format [yuv420]       set input format (yuv420, yuv420_10, yuv420_10_packed)\n",
      "  -r,   --framerate [60]        temporal rate (framerate numerator) e.g. 25,30, 30000, 50,60, 60000 \n",
      "        --framescale [1]        temporal scale (framerate denominator) e.g. 1, 1001 \n",
      "        --fps [60/1]            Framerate as int or fraction (num/denom) \n",
      "        --tickspersec [90000]   Ticks Per Second for dts generation, (1..27000000)\n",
      "  -f,   --frames [0]            max. frames to encode [all]\n",
      "  -fs,  --frameskip [0]         Number of frames to skip at start of input YUV [off]\n",
      "        --segment [off]         when encoding multiple separate segments, specify segment position to enable segment concatenation (first, mid, last) [off]\n",
      "                                first: first segment           \n",
      "                                mid  : all segments between first and last segment\n",
      "                                last : last segment\n",
      "\n",
      "#======== Output Options ================\n",
      "  -o,   --output []             Bitstream output file name\n",
      "\n",
      "#======== Encoder Options ================\n",
      "        --preset [medium]       select preset for specific encoding setting (faster, fast, medium, slow, slower)\n",
      "  -b,   --bitrate [0]           bitrate for rate control (0: constant-QP encoding without rate control, otherwise\n",
      "                                bits/second)\n",
      "  -p,   --passes [-1]           number of rate control passes (1,2)\n",
      "        --pass [-1]             rate control pass for two-pass rate control (-1,1,2)\n",
      "        --rcstatsfile []        rate control statistics file\n",
      "  -q,   --qp [32]               quantization parameter, QP (0-63)\n",
      "        --qpa [on]              Enable perceptually motivated QP adaptation, XPSNR based (0:off, 1:on)\n",
      "  -t,   --threads [-1]          Number of threads default: [size < 720p: 4, >= 720p: 8]\n",
      "  -g,   --gopsize [32]          GOP size of temporal structure (16,32)\n",
      "  -rt,  --refreshtype [cra]     intra refresh type (idr,cra,idr2,cra_cre - CRA with constrained encoding for RASL\n",
      "                                pictures)\n",
      "  -rs,  --refreshsec [1]        Intra period/refresh in seconds\n",
      "  -ip,  --intraperiod [0]       Intra period in frames (0: use intra period in seconds (refreshsec), else: n*gopsize)\n",
      "        --tiles [1x1]           Set number of tile columns and rows\n",
      "\n",
      "#======== Profile, Level, Tier ================\n",
      "        --profile [auto]        select profile (main10, main10_stillpic)\n",
      "        --level [auto]          Level limit (1.0, 2.0,2.1, 3.0,3.1, 4.0,4.1, 5.0,5.1,5.2, 6.0,6.1,6.2,6.3, 15.5)\n",
      "        --tier [main]           Tier to use for interpretation of level (main or high)\n",
      "\n",
      "#======== HDR and Color Options ================\n",
      "        --hdr [off]             set HDR mode (+SEI messages) + BT.709 or BT.2020 color space. use: off, pq|hdr10,\n",
      "                                pq_2020|hdr10_2020, hlg, hlg_2020\n"
     ]
    }
   ],
   "source": [
    "#!ffmpeg -h encoder=vvc\n",
    "!vvencapp --help\n"
   ]
  },
  {
   "cell_type": "markdown",
   "id": "33a15fb4-8e49-483a-b174-a61f7f110b85",
   "metadata": {},
   "source": [
    "### VP8, VP9, AV1\n",
    "\n",
    "Open Media Alliance created VP8, VP9, VP1 to counteract the H.264|MPEG-4 AVC, H.265|HEVC potential licensing woes. H.266/VVC seems to be encumbered by licensing issues as well. VP8 was deprecated, superceded by VP9, which itself was superceded by AV1.\n"
   ]
  },
  {
   "cell_type": "code",
   "execution_count": 79,
   "id": "7023167c-f7ae-41d6-9a65-fdf231ac7068",
   "metadata": {},
   "outputs": [
    {
     "name": "stdout",
     "output_type": "stream",
     "text": [
      "ffmpeg version n4.4.1-2-gcc33e73618 Copyright (c) 2000-2021 the FFmpeg developers\n",
      "  built with gcc 10 (Ubuntu 10.3.0-1ubuntu1~20.04)\n",
      "  configuration: --prefix=/opt/local --enable-gpl --enable-version3 --enable-nonfree --enable-shared --enable-opencl --enable-opengl --enable-vulkan --enable-libxvid --enable-libx265 --enable-libx264 --enable-libwebp --enable-libvpx --enable-libvorbis --enable-libtheora --enable-libsrt --enable-libspeex --enable-libsoxr --enable-librtmp --enable-librsvg --enable-libopus --enable-libopenmpt --enable-libcaca --cpu=znver2 --enable-pic --enable-lto --enable-avx2 --enable-libkvazaar --enable-libvmaf --enable-libdav1d --enable-libaom --x86asmexe=yasm\n",
      "  libavutil      56. 70.100 / 56. 70.100\n",
      "  libavcodec     58.134.100 / 58.134.100\n",
      "  libavformat    58. 76.100 / 58. 76.100\n",
      "  libavdevice    58. 13.100 / 58. 13.100\n",
      "  libavfilter     7.110.100 /  7.110.100\n",
      "  libswscale      5.  9.100 /  5.  9.100\n",
      "  libswresample   3.  9.100 /  3.  9.100\n",
      "  libpostproc    55.  9.100 / 55.  9.100\n",
      "Encoder libvpx [libvpx VP8]:\n",
      "    General capabilities: delay threads \n",
      "    Threading capabilities: other\n",
      "    Supported pixel formats: yuv420p yuva420p\n",
      "libvpx-vp8 encoder AVOptions:\n",
      "  -lag-in-frames     <int>        E..V....... Number of frames to look ahead for alternate reference frame selection (from -1 to INT_MAX) (default -1)\n",
      "  -arnr-maxframes    <int>        E..V....... altref noise reduction max frame count (from -1 to INT_MAX) (default -1)\n",
      "  -arnr-strength     <int>        E..V....... altref noise reduction filter strength (from -1 to INT_MAX) (default -1)\n",
      "  -arnr-type         <int>        E..V....... altref noise reduction filter type (from -1 to INT_MAX) (default -1)\n",
      "     backward        1            E..V.......\n",
      "     forward         2            E..V.......\n",
      "     centered        3            E..V.......\n",
      "  -tune              <int>        E..V....... Tune the encoding to a specific scenario (from -1 to INT_MAX) (default -1)\n",
      "     psnr            0            E..V.......\n",
      "     ssim            1            E..V.......\n",
      "  -deadline          <int>        E..V....... Time to spend encoding, in microseconds. (from INT_MIN to INT_MAX) (default good)\n",
      "     best            0            E..V.......\n",
      "     good            1000000      E..V.......\n",
      "     realtime        1            E..V.......\n",
      "  -error-resilient   <flags>      E..V....... Error resilience configuration (default 0)\n",
      "     default                      E..V....... Improve resiliency against losses of whole frames\n",
      "     partitions                   E..V....... The frame partitions are independently decodable by the bool decoder, meaning that partitions can be decoded even though earlier partitions have been lost. Note that intra prediction is still done over the partition boundary.\n",
      "  -max-intra-rate    <int>        E..V....... Maximum I-frame bitrate (pct) 0=unlimited (from -1 to INT_MAX) (default -1)\n",
      "  -crf               <int>        E..V....... Select the quality for constant quality mode (from -1 to 63) (default -1)\n",
      "  -static-thresh     <int>        E..V....... A change threshold on blocks below which they will be skipped by the encoder (from 0 to INT_MAX) (default 0)\n",
      "  -drop-threshold    <int>        E..V....... Frame drop threshold (from INT_MIN to INT_MAX) (default 0)\n",
      "  -noise-sensitivity <int>        E..V....... Noise sensitivity (from 0 to 4) (default 0)\n",
      "  -undershoot-pct    <int>        E..V....... Datarate undershoot (min) target (%) (from -1 to 100) (default -1)\n",
      "  -overshoot-pct     <int>        E..V....... Datarate overshoot (max) target (%) (from -1 to 1000) (default -1)\n",
      "  -ts-parameters     <dictionary> E..V....... Temporal scaling configuration using a :-separated list of key=value parameters\n",
      "  -auto-alt-ref      <int>        E..V....... Enable use of alternate reference frames (2-pass only) (from -1 to 2) (default -1)\n",
      "  -cpu-used          <int>        E..V....... Quality/Speed ratio modifier (from -16 to 16) (default 1)\n",
      "  -speed             <int>        E..V.......  (from -16 to 16) (default 1)\n",
      "  -quality           <int>        E..V.......  (from INT_MIN to INT_MAX) (default good)\n",
      "     best            0            E..V.......\n",
      "     good            1000000      E..V.......\n",
      "     realtime        1            E..V.......\n",
      "  -vp8flags          <flags>      E..V.......  (default 0)\n",
      "     error_resilient              E..V....... enable error resilience\n",
      "     altref                       E..V....... enable use of alternate reference frames (VP8/2-pass only)\n",
      "  -arnr_max_frames   <int>        E..V....... altref noise reduction max frame count (from 0 to 15) (default 0)\n",
      "  -arnr_strength     <int>        E..V....... altref noise reduction filter strength (from 0 to 6) (default 3)\n",
      "  -arnr_type         <int>        E..V....... altref noise reduction filter type (from 1 to 3) (default 3)\n",
      "  -rc_lookahead      <int>        E..V....... Number of frames to look ahead for alternate reference frame selection (from 0 to 25) (default 25)\n",
      "  -sharpness         <int>        E..V....... Increase sharpness at the expense of lower PSNR (from -1 to 7) (default -1)\n",
      "\n",
      "Encoder vp8_v4l2m2m [V4L2 mem2mem VP8 encoder wrapper]:\n",
      "    General capabilities: delay hardware \n",
      "    Threading capabilities: none\n",
      "vp8_v4l2m2m_encoder AVOptions:\n",
      "  -num_output_buffers <int>        E..V....... Number of buffers in the output context (from 6 to INT_MAX) (default 16)\n",
      "  -num_capture_buffers <int>        E..V....... Number of buffers in the capture context (from 4 to INT_MAX) (default 4)\n",
      "\n"
     ]
    }
   ],
   "source": [
    "!ffmpeg -h encoder=vp8"
   ]
  },
  {
   "cell_type": "code",
   "execution_count": 53,
   "id": "9613a088-a01c-4d82-9875-6ecf7f9239c4",
   "metadata": {},
   "outputs": [],
   "source": []
  },
  {
   "cell_type": "code",
   "execution_count": 100,
   "id": "f56da168-693e-4805-8201-814300ddecfd",
   "metadata": {},
   "outputs": [],
   "source": [
    "def compress_video(video_full_path, output_file_name, target_size):\n",
    "    # Reference: https://en.wikipedia.org/wiki/Bit_rate#Encoding_bit_rate\n",
    "    min_audio_bitrate = 32000\n",
    "    max_audio_bitrate = 256000\n",
    "\n",
    "    # get AV info\n",
    "    probe = ffmpeg.probe(video_full_path)\n",
    "    duration = float(probe[\"format\"][\"duration\"])\n",
    "\n",
    "    audio_bitrate = 0\n",
    "    \n",
    "    # if there's audio\n",
    "    if ffmpeg.probe(video_full_path, select_streams=\"a\")[\"streams\"]:\n",
    "        # Audio bitrate, in bps.\n",
    "        audio_bitrate = float(\n",
    "            next((s for s in probe[\"streams\"] if s[\"codec_type\"] == \"audio\"), None)[\"bit_rate\"]\n",
    "        )\n",
    "    \n",
    "    # Target total bitrate, in bps.\n",
    "    target_total_bitrate = (target_size * 1024 * 8) / (1.073741824 * duration)\n",
    "\n",
    "    if audio_bitrate > 0:\n",
    "        # Target audio bitrate, in bps\n",
    "        if 10 * audio_bitrate > target_total_bitrate:\n",
    "            audio_bitrate = target_total_bitrate / 10\n",
    "\n",
    "            if audio_bitrate < min_audio_bitrate < target_total_bitrate:\n",
    "                audio_bitrate = min_audio_bitrate\n",
    "\n",
    "            elif audio_bitrate > max_audio_bitrate:\n",
    "                audio_bitrate = max_audio_bitrate\n",
    "            \n",
    "    # Target video bitrate, in bps.\n",
    "    video_bitrate = target_total_bitrate - audio_bitrate\n",
    "\n",
    "    i = ffmpeg.input(video_full_path)\n",
    "    \n",
    "    # in this case, x264, 2 passes, MP4 container, using libx264\n",
    "    # https://ffmpeg.org/ffmpeg.html#Main-options\n",
    "    # https://ffmpeg.org/ffmpeg.html#toc-Video-Options\n",
    "    #\n",
    "    # -b:v = video bitrate, -b:a = audio bitrate, AAC audio container pass 2\n",
    "    # -c[:stream] codec, i.e, -c:v x264 for video stream codec x264\n",
    "    # same as -vcodec codec, -codec:v\n",
    "    # -f = format = container mp4, -y overwrite file\n",
    "    # for audio stream -c:a copy = just copy the audio output\n",
    "    # \n",
    "    # https://ffmpeg.org/ffmpeg.html#Advanced-Video-options\n",
    "    # -pix_fmt (use -pix_fmts to display list):\n",
    "    # yuv420p | yuv422p | yuv410p | yuv411p | yuv444p\n",
    "    # for 10bit, p10, 9bit, p9, 16bit, p16, i.e, yuv444p10be|le\n",
    "    # xyz12le|be. yuv440p10le|be = 20bit, yuv440p12le|be = 24bit\n",
    "    #\n",
    "    # Stats: -psnr = calculate psnr of compressed frames, -vstats_file <file> (stats)\n",
    "    # -qphist (show QP histogram). -dc precision (intra dc precision)\n",
    "    # -init_hw_device cuda:1, second dev on the system or\n",
    "    # -init_hw_device cuda:0,primary_ctx=1\n",
    "    #\n",
    "    # stats:\n",
    "    # https://ffmpeg.org/ffmpeg-filters.html#codecview\n",
    "    # motion vectors view, etc, ffplay -flags2 +export_mvs input.mp4 -vf codecview=mv=pf+bf+bb\n",
    "    #\n",
    "    # https://ffmpeg.org/ffmpeg-codecs.html\n",
    "    # https://ffmpeg.org/ffmpeg-codecs.html#codec_002doptions\n",
    "    # flags <flags> : mv4 | qpel , g <int> (GOP size, 12) | qcomp <float> video quantizer scale\n",
    "    # scale compression VBR, constant in rate control equation, [0, 1]\n",
    "    # bf <int> number of B-frames between non-B-frames, [0-16], 0=disabled, -1=auto from codec\n",
    "    # b_qfactgor = qp factor between P and B frames\n",
    "    # DCT = auto | fastint | int | mmx | faan (AAN DCT floating point)\n",
    "    # EC concealment strategy, guess_mvs | deblock | favor_inter<code=\"language-python\">%%latex\n",
    "    # mbd <int> macroblock choice: simple (def) | bits (fewest bits) | rd (best rate distortion)\n",
    "    # export_side_data <flags>\n",
    "    # venc_params\n",
    "    # \n",
    "    # dc <int> (intra_dc_precision)\n",
    "    # profile <int> (codec profile, varies w codec) | level <int> (codec profile)\n",
    "    # bidir_refine <int> refine motion vectors used in-between macroblocks\n",
    "    #\n",
    "    # https://trac.ffmpeg.org/wiki/Encode/H.264\n",
    "    # constant rate factor CRF in [0,51], 0=lossless, 23 = default, 51 = lossy, 17/18 perceptually lossless\n",
    "    # preset: (ultra|super|very)fast, medium, slow, slower, veryslow, placebo\n",
    "    # tune: film | animation | grain | stillimage | fastdecode | zerolatency (| psnr | ssim = stats)\n",
    "    # ffmpeg -i input -c:v libx264 -preset slow -crf 22 -x264-params keyint=123:min-keyint=20 -c:a copy output.mkv\n",
    "    # see ffmpeg -h encoder=libx264\n",
    "    #\n",
    "\n",
    "    ffmpeg.output(i, os.devnull,\n",
    "                  **{\n",
    "                      \"c:v\": \"libx264\",\n",
    "                      \"b:v\": video_bitrate,\n",
    "                      \"pass\": 1,\n",
    "                      \"f\": \"mp4\",\n",
    "                      \"preset\" : \"slow\",\n",
    "                      \"tune\" : \"animation\",\n",
    "                      \"x264-params\" : \"dct=faan\",\n",
    "                      \"export_side_data\" : \"venc_params\",\n",
    "                  }\n",
    "                  ).overwrite_output().run()\n",
    "    \n",
    "    # 2nd pass\n",
    "    ffmpeg.output(i, output_file_name,\n",
    "                  **{\n",
    "                      \"c:v\": \"libx264\",\n",
    "                      \"b:v\": video_bitrate,\n",
    "                      \"pass\": 2,\n",
    "                      \"preset\" : \"slow\",\n",
    "                      \"tune\" : \"animation\",\n",
    "                      \"x264-params\" : \"dct=faan\",\n",
    "                      \"export_side_data\" : \"venc_params\",\n",
    "                      \"c:a\": \"copy\"\n",
    "                  }\n",
    "                  ).overwrite_output().run()\n",
    "    "
   ]
  },
  {
   "cell_type": "code",
   "execution_count": 101,
   "id": "628132b9-3f69-48c7-bc83-758283ff0655",
   "metadata": {},
   "outputs": [
    {
     "name": "stderr",
     "output_type": "stream",
     "text": [
      "ffmpeg version n4.4.1-2-gcc33e73618 Copyright (c) 2000-2021 the FFmpeg developers\n",
      "  built with gcc 10 (Ubuntu 10.3.0-1ubuntu1~20.04)\n",
      "  configuration: --prefix=/opt/local --enable-gpl --enable-version3 --enable-nonfree --enable-shared --enable-opencl --enable-opengl --enable-vulkan --enable-libxvid --enable-libx265 --enable-libx264 --enable-libwebp --enable-libvpx --enable-libvorbis --enable-libtheora --enable-libsrt --enable-libspeex --enable-libsoxr --enable-librtmp --enable-librsvg --enable-libopus --enable-libopenmpt --enable-libcaca --cpu=znver2 --enable-pic --enable-lto --enable-avx2 --enable-libkvazaar --enable-libvmaf --enable-libdav1d --enable-libaom --x86asmexe=yasm\n",
      "  libavutil      56. 70.100 / 56. 70.100\n",
      "  libavcodec     58.134.100 / 58.134.100\n",
      "  libavformat    58. 76.100 / 58. 76.100\n",
      "  libavdevice    58. 13.100 / 58. 13.100\n",
      "  libavfilter     7.110.100 /  7.110.100\n",
      "  libswscale      5.  9.100 /  5.  9.100\n",
      "  libswresample   3.  9.100 /  3.  9.100\n",
      "  libpostproc    55.  9.100 / 55.  9.100\n",
      "Input #0, mov,mp4,m4a,3gp,3g2,mj2, from '/home/cgwork/Downloads/Masters/Tecnologias_Comunicacao_Multimedia_TCM/Work/videos/original/Design_-_35488.mp4':\n",
      "  Metadata:\n",
      "    major_brand     : mp42\n",
      "    minor_version   : 0\n",
      "    compatible_brands: mp42mp41isomavc1\n",
      "    creation_time   : 2020-04-09T17:31:35.000000Z\n",
      "  Duration: 00:00:06.67, start: 0.000000, bitrate: 4993 kb/s\n",
      "  Stream #0:0(und): Video: h264 (High) (avc1 / 0x31637661), yuv420p(tv, bt709), 1920x1080, 4988 kb/s, 30 fps, 30 tbr, 30 tbn, 60 tbc (default)\n",
      "    Metadata:\n",
      "      creation_time   : 2020-04-09T17:31:35.000000Z\n",
      "      handler_name    : L-SMASH Video Handler\n",
      "      vendor_id       : [0][0][0][0]\n",
      "      encoder         : AVC Coding\n",
      "Stream mapping:\n",
      "  Stream #0:0 -> #0:0 (h264 (native) -> h264 (libx264))\n",
      "Press [q] to stop, [?] for help\n",
      "[libx264 @ 0x55db6a2b1a40] Error parsing option 'dct = faan'.\n",
      "[libx264 @ 0x55db6a2b1a40] using cpu capabilities: MMX2 SSE2Fast SSSE3 SSE4.2 AVX FMA3 BMI2 AVX2\n",
      "[libx264 @ 0x55db6a2b1a40] profile Main, level 5.0\n",
      "[libx264 @ 0x55db6a2b1a40] 264 - core 155 r2917 0a84d98 - H.264/MPEG-4 AVC codec - Copyleft 2003-2018 - http://www.videolan.org/x264.html - options: cabac=1 ref=1 deblock=1:1:1 analyse=0x1:0 me=dia subme=2 psy=1 psy_rd=0.40:0.00 mixed_ref=0 me_range=16 chroma_me=1 trellis=0 8x8dct=0 cqm=0 deadzone=21,11 fast_pskip=1 chroma_qp_offset=0 threads=24 lookahead_threads=8 sliced_threads=0 nr=0 decimate=1 interlaced=0 bluray_compat=0 constrained_intra=0 bframes=5 b_pyramid=2 b_adapt=1 b_bias=0 direct=3 weightb=1 open_gop=0 weightp=2 keyint=250 keyint_min=25 scenecut=40 intra_refresh=0 rc_lookahead=50 rc=abr mbtree=1 bitrate=58593 ratetol=1.0 qcomp=0.60 qpmin=0 qpmax=69 qpstep=4 ip_ratio=1.40 aq=1:0.60\n",
      "Output #0, mp4, to '/dev/null':\n",
      "  Metadata:\n",
      "    major_brand     : mp42\n",
      "    minor_version   : 0\n",
      "    compatible_brands: mp42mp41isomavc1\n",
      "    encoder         : Lavf58.76.100\n",
      "  Stream #0:0(und): Video: h264 (avc1 / 0x31637661), yuv420p(tv, bt709, progressive), 1920x1080, q=2-31, 58593 kb/s, 30 fps, 15360 tbn (default)\n",
      "    Metadata:\n",
      "      creation_time   : 2020-04-09T17:31:35.000000Z\n",
      "      handler_name    : L-SMASH Video Handler\n",
      "      vendor_id       : [0][0][0][0]\n",
      "      encoder         : Lavc58.134.100 libx264\n",
      "    Side data:\n",
      "      cpb: bitrate max/min/avg: 0/0/58593000 buffer size: 0 vbv_delay: N/A\n",
      "frame=  200 fps= 94 q=-1.0 Lsize=   48448kB time=00:00:06.56 bitrate=60438.4kbits/s speed=3.09x    \n",
      "video:48444kB audio:0kB subtitle:0kB other streams:0kB global headers:0kB muxing overhead: 0.007568%\n",
      "[libx264 @ 0x55db6a2b1a40] frame I:1     Avg QP: 1.06  size:275070\n",
      "[libx264 @ 0x55db6a2b1a40] frame P:71    Avg QP: 1.54  size:335122\n",
      "[libx264 @ 0x55db6a2b1a40] frame B:128   Avg QP: 2.33  size:199509\n",
      "[libx264 @ 0x55db6a2b1a40] consecutive B-frames:  1.0% 42.0%  1.5% 50.0%  2.5%  3.0%\n",
      "[libx264 @ 0x55db6a2b1a40] mb I  I16..4: 36.4%  0.0% 63.6%\n",
      "[libx264 @ 0x55db6a2b1a40] mb P  I16..4: 44.9%  0.0%  0.0%  P16..4: 54.1%  0.0%  0.0%  0.0%  0.0%    skip: 1.0%\n",
      "[libx264 @ 0x55db6a2b1a40] mb B  I16..4: 10.6%  0.0%  0.0%  B16..8: 58.9%  0.0%  0.0%  direct:23.9%  skip: 6.7%  L0:41.3% L1:40.0% BI:18.7%\n",
      "[libx264 @ 0x55db6a2b1a40] final ratefactor: -0.76\n",
      "[libx264 @ 0x55db6a2b1a40] direct mvs  spatial:89.8% temporal:10.2%\n",
      "[libx264 @ 0x55db6a2b1a40] coded y,uvDC,uvAC intra: 51.9% 69.3% 44.8% inter: 60.4% 72.3% 61.6%\n",
      "[libx264 @ 0x55db6a2b1a40] i16 v,h,dc,p: 44% 25% 16% 15%\n",
      "[libx264 @ 0x55db6a2b1a40] i4 v,h,dc,ddl,ddr,vr,hd,vl,hu: 35% 19%  9%  7%  9%  8%  5%  6%  2%\n",
      "[libx264 @ 0x55db6a2b1a40] i8c dc,h,v,p: 43% 27% 22%  8%\n",
      "[libx264 @ 0x55db6a2b1a40] Weighted P-Frames: Y:0.0% UV:0.0%\n",
      "[libx264 @ 0x55db6a2b1a40] kb/s:59527.08\n",
      "ffmpeg version n4.4.1-2-gcc33e73618 Copyright (c) 2000-2021 the FFmpeg developers\n",
      "  built with gcc 10 (Ubuntu 10.3.0-1ubuntu1~20.04)\n",
      "  configuration: --prefix=/opt/local --enable-gpl --enable-version3 --enable-nonfree --enable-shared --enable-opencl --enable-opengl --enable-vulkan --enable-libxvid --enable-libx265 --enable-libx264 --enable-libwebp --enable-libvpx --enable-libvorbis --enable-libtheora --enable-libsrt --enable-libspeex --enable-libsoxr --enable-librtmp --enable-librsvg --enable-libopus --enable-libopenmpt --enable-libcaca --cpu=znver2 --enable-pic --enable-lto --enable-avx2 --enable-libkvazaar --enable-libvmaf --enable-libdav1d --enable-libaom --x86asmexe=yasm\n",
      "  libavutil      56. 70.100 / 56. 70.100\n",
      "  libavcodec     58.134.100 / 58.134.100\n",
      "  libavformat    58. 76.100 / 58. 76.100\n",
      "  libavdevice    58. 13.100 / 58. 13.100\n",
      "  libavfilter     7.110.100 /  7.110.100\n",
      "  libswscale      5.  9.100 /  5.  9.100\n",
      "  libswresample   3.  9.100 /  3.  9.100\n",
      "  libpostproc    55.  9.100 / 55.  9.100\n",
      "Input #0, mov,mp4,m4a,3gp,3g2,mj2, from '/home/cgwork/Downloads/Masters/Tecnologias_Comunicacao_Multimedia_TCM/Work/videos/original/Design_-_35488.mp4':\n",
      "  Metadata:\n",
      "    major_brand     : mp42\n",
      "    minor_version   : 0\n",
      "    compatible_brands: mp42mp41isomavc1\n",
      "    creation_time   : 2020-04-09T17:31:35.000000Z\n",
      "  Duration: 00:00:06.67, start: 0.000000, bitrate: 4993 kb/s\n",
      "  Stream #0:0(und): Video: h264 (High) (avc1 / 0x31637661), yuv420p(tv, bt709), 1920x1080, 4988 kb/s, 30 fps, 30 tbr, 30 tbn, 60 tbc (default)\n",
      "    Metadata:\n",
      "      creation_time   : 2020-04-09T17:31:35.000000Z\n",
      "      handler_name    : L-SMASH Video Handler\n",
      "      vendor_id       : [0][0][0][0]\n",
      "      encoder         : AVC Coding\n",
      "Stream mapping:\n",
      "  Stream #0:0 -> #0:0 (h264 (native) -> h264 (libx264))\n",
      "Press [q] to stop, [?] for help\n",
      "[libx264 @ 0x560ef117aa40] Error parsing option 'dct = faan'.\n",
      "[libx264 @ 0x560ef117aa40] using cpu capabilities: MMX2 SSE2Fast SSSE3 SSE4.2 AVX FMA3 BMI2 AVX2\n",
      "[libx264 @ 0x560ef117aa40] profile High, level 5.0\n",
      "[libx264 @ 0x560ef117aa40] 264 - core 155 r2917 0a84d98 - H.264/MPEG-4 AVC codec - Copyleft 2003-2018 - http://www.videolan.org/x264.html - options: cabac=1 ref=10 deblock=1:1:1 analyse=0x3:0x113 me=hex subme=8 psy=1 psy_rd=0.40:0.00 mixed_ref=1 me_range=16 chroma_me=1 trellis=2 8x8dct=1 cqm=0 deadzone=21,11 fast_pskip=1 chroma_qp_offset=-2 threads=24 lookahead_threads=4 sliced_threads=0 nr=0 decimate=1 interlaced=0 bluray_compat=0 constrained_intra=0 bframes=5 b_pyramid=2 b_adapt=1 b_bias=0 direct=3 weightb=1 open_gop=0 weightp=2 keyint=250 keyint_min=25 scenecut=40 intra_refresh=0 rc_lookahead=50 rc=2pass mbtree=1 bitrate=58593 ratetol=1.0 qcomp=0.60 qpmin=0 qpmax=69 qpstep=4 cplxblur=20.0 qblur=0.5 ip_ratio=1.40 aq=1:0.60\n",
      "Output #0, mp4, to '/home/cgwork/Downloads/Masters/Tecnologias_Comunicacao_Multimedia_TCM/Work/videos/compressed/Design_-_35488.mp4':\n",
      "  Metadata:\n",
      "    major_brand     : mp42\n",
      "    minor_version   : 0\n",
      "    compatible_brands: mp42mp41isomavc1\n",
      "    encoder         : Lavf58.76.100\n",
      "  Stream #0:0(und): Video: h264 (avc1 / 0x31637661), yuv420p(tv, bt709, progressive), 1920x1080, q=2-31, 58593 kb/s, 30 fps, 15360 tbn (default)\n",
      "    Metadata:\n",
      "      creation_time   : 2020-04-09T17:31:35.000000Z\n",
      "      handler_name    : L-SMASH Video Handler\n",
      "      vendor_id       : [0][0][0][0]\n",
      "      encoder         : Lavc58.134.100 libx264\n",
      "    Side data:\n",
      "      cpb: bitrate max/min/avg: 0/0/58593000 buffer size: 0 vbv_delay: N/A\n",
      "frame=  200 fps= 22 q=-1.0 Lsize=   43390kB time=00:00:06.56 bitrate=54129.1kbits/s speed=0.721x    \n",
      "video:43386kB audio:0kB subtitle:0kB other streams:0kB global headers:0kB muxing overhead: 0.008450%\n",
      "[libx264 @ 0x560ef117aa40] frame I:1     Avg QP: 1.12  size:284301\n",
      "[libx264 @ 0x560ef117aa40] frame P:71    Avg QP: 0.63  size:310437\n",
      "[libx264 @ 0x560ef117aa40] frame B:128   Avg QP: 1.11  size:172669\n",
      "[libx264 @ 0x560ef117aa40] consecutive B-frames:  1.0% 42.0%  1.5% 50.0%  2.5%  3.0%\n",
      "[libx264 @ 0x560ef117aa40] mb I  I16..4: 43.8% 16.4% 39.7%\n",
      "[libx264 @ 0x560ef117aa40] mb P  I16..4: 26.9%  8.8% 25.3%  P16..4: 23.3%  9.5%  4.6%  0.0%  0.0%    skip: 1.6%\n",
      "[libx264 @ 0x560ef117aa40] mb B  I16..4:  5.0%  2.3%  4.3%  B16..8: 38.7% 14.0%  2.7%  direct:21.8%  skip:11.2%  L0:47.7% L1:44.1% BI: 8.2%\n",
      "[libx264 @ 0x560ef117aa40] 8x8 transform intra:15.8% inter:13.6%\n",
      "[libx264 @ 0x560ef117aa40] direct mvs  spatial:100.0% temporal:0.0%\n",
      "[libx264 @ 0x560ef117aa40] coded y,uvDC,uvAC intra: 54.1% 72.2% 50.5% inter: 46.4% 70.8% 61.1%\n",
      "[libx264 @ 0x560ef117aa40] i16 v,h,dc,p: 48% 26% 15% 11%\n",
      "[libx264 @ 0x560ef117aa40] i8 v,h,dc,ddl,ddr,vr,hd,vl,hu: 36% 22% 28%  2%  2%  3%  2%  3%  2%\n",
      "[libx264 @ 0x560ef117aa40] i4 v,h,dc,ddl,ddr,vr,hd,vl,hu: 34% 21% 13%  4%  7%  7%  6%  4%  3%\n",
      "[libx264 @ 0x560ef117aa40] i8c dc,h,v,p: 40% 29% 23%  8%\n",
      "[libx264 @ 0x560ef117aa40] Weighted P-Frames: Y:0.0% UV:0.0%\n",
      "[libx264 @ 0x560ef117aa40] ref P L0: 76.4%  9.9% 10.5%  1.9%  0.7%  0.3%  0.2%  0.1%  0.1%  0.1%\n",
      "[libx264 @ 0x560ef117aa40] ref B L0: 89.4%  7.6%  1.7%  0.5%  0.3%  0.2%  0.2%  0.1%  0.1%\n",
      "[libx264 @ 0x560ef117aa40] ref B L1: 99.0%  1.0%\n",
      "[libx264 @ 0x560ef117aa40] kb/s:53312.36\n"
     ]
    }
   ],
   "source": [
    "# compress video to MB size\n",
    "target_size = 50 * 1024\n",
    "\n",
    "compress_video(config[\"VIDEO_IN\"][0], config[\"VIDEO_OUT\"][0], target_size)"
   ]
  },
  {
   "cell_type": "code",
   "execution_count": null,
   "id": "b82b15b1-7dd6-4563-86de-61bdbef57a9f",
   "metadata": {},
   "outputs": [],
   "source": []
  }
 ],
 "metadata": {
  "kernelspec": {
   "display_name": "Python 3 (ipykernel)",
   "language": "python",
   "name": "python3"
  },
  "language_info": {
   "codemirror_mode": {
    "name": "ipython",
    "version": 3
   },
   "file_extension": ".py",
   "mimetype": "text/x-python",
   "name": "python",
   "nbconvert_exporter": "python",
   "pygments_lexer": "ipython3",
   "version": "3.8.10"
  }
 },
 "nbformat": 4,
 "nbformat_minor": 5
}
